<svg width="195" height="45" viewBox="0 0 195 61" fill="none" xmlns="http://www.w3.org/2000/svg">
<path d="M10.432 41.176C7.44533 41.176 5.09867 40.664 3.392 39.64C1.68533 38.6587 0.832 37.2507 0.832 35.416C0.832 33.5387 1.38667 31.8107 2.496 30.232C3.60533 28.6107 5.03467 27.224 6.784 26.072C8.576 24.8773 10.432 23.96 12.352 23.32C14.3147 22.6373 16.128 22.296 17.792 22.296C18.6453 22.296 19.072 22.424 19.072 22.68C19.072 23.064 18.624 23.256 17.728 23.256C16.1493 23.256 14.4213 23.64 12.544 24.408C10.7093 25.176 9.06667 26.2427 7.616 27.608C6.464 28.632 5.58933 29.6773 4.992 30.744C4.43733 31.768 4.16 32.728 4.16 33.624C4.16 34.9467 4.77867 36.056 6.016 36.952C7.25333 37.8053 9.10933 38.232 11.584 38.232C13.0347 38.232 14.5067 38.1253 16 37.912C17.4933 37.656 18.8373 37.3787 20.032 37.08C21.2693 36.7813 22.208 36.5467 22.848 36.376C24.4267 35.864 26.0053 35.2453 27.584 34.52C29.2053 33.7947 30.656 32.984 31.936 32.088C33.216 31.1493 34.1547 30.2107 34.752 29.272C35.0933 28.76 35.328 28.2693 35.456 27.8C35.6267 27.3307 35.712 26.8827 35.712 26.456C35.712 25.2613 35.1787 24.2587 34.112 23.448C33.0453 22.5947 31.68 21.8267 30.016 21.144C28.352 20.4613 26.5813 19.8213 24.704 19.224C22.8267 18.584 21.056 17.9227 19.392 17.24C17.728 16.5573 16.3627 15.7893 15.296 14.936C14.2293 14.04 13.696 12.9733 13.696 11.736C13.696 10.328 14.208 9.06933 15.232 7.96C16.2987 6.808 17.6427 5.80533 19.264 4.952C20.928 4.056 22.6987 3.33066 24.576 2.776C26.4533 2.17866 28.2453 1.73066 29.952 1.432C31.6587 1.13333 33.0667 0.983997 34.176 0.983997C38.8693 0.983997 41.216 2.15733 41.216 4.504C41.216 5.44267 40.832 6.53067 40.064 7.768C39.7227 8.408 39.232 9.02667 38.592 9.624C37.952 10.1787 37.4613 10.456 37.12 10.456C36.864 10.456 36.736 10.3067 36.736 10.008C36.736 9.88 36.9707 9.624 37.44 9.24C37.9093 8.81333 38.3787 8.30133 38.848 7.704C39.3173 7.10667 39.552 6.50933 39.552 5.912C39.552 5.016 39.04 4.33333 38.016 3.864C37.0347 3.39467 35.7333 3.16 34.112 3.16C33.344 3.16 32.2347 3.288 30.784 3.544C29.3333 3.75733 27.7547 4.12 26.048 4.632C24.3413 5.144 22.6987 5.82667 21.12 6.68C18.176 8.30133 16.704 9.688 16.704 10.84C16.704 11.6933 17.536 12.504 19.2 13.272C20.4373 13.8267 21.8667 14.4027 23.488 15C25.1093 15.5973 26.752 16.2373 28.416 16.92C30.08 17.6027 31.616 18.3707 33.024 19.224C34.4747 20.0773 35.6267 21.0373 36.48 22.104C37.376 23.128 37.824 24.3013 37.824 25.624C37.824 27.416 36.8427 29.2507 34.88 31.128C33.344 32.5787 31.552 33.9227 29.504 35.16C27.4987 36.3973 25.3653 37.464 23.104 38.36C20.8853 39.256 18.688 39.9387 16.512 40.408C14.336 40.92 12.3093 41.176 10.432 41.176ZM37.6845 39.832C37.3858 39.832 37.3005 39.6827 37.4285 39.384C37.5565 39.128 37.7912 38.552 38.1325 37.656C38.4738 36.7173 38.8578 35.608 39.2845 34.328C39.7538 33.048 40.2232 31.7253 40.6925 30.36C41.1618 28.9947 41.5885 27.7147 41.9725 26.52C42.3992 25.3253 42.7405 24.3867 42.9965 23.704C43.0818 23.448 43.1672 23.0853 43.2525 22.616C43.3378 22.104 43.5085 21.656 43.7645 21.272C44.0632 20.8453 44.5538 20.632 45.2365 20.632C46.5165 20.632 47.1565 20.9307 47.1565 21.528C47.1565 21.7413 47.0498 22.104 46.8365 22.616C46.3245 23.768 45.7698 25.0907 45.1725 26.584C44.5752 28.0773 44.0418 29.4853 43.5725 30.808C43.1032 32.1307 42.7405 33.1547 42.4845 33.88C42.9112 33.2827 43.5938 32.4293 44.5325 31.32C45.5138 30.2107 46.6018 29.016 47.7965 27.736C48.9912 26.456 50.2285 25.2187 51.5085 24.024C52.8312 22.8293 54.0472 21.8693 55.1565 21.144C56.3085 20.376 57.2898 19.992 58.1005 19.992C59.1245 19.992 59.6365 20.5467 59.6365 21.656C59.6365 22.04 59.5298 22.616 59.3165 23.384C58.9325 24.4507 58.4418 25.496 57.8445 26.52C57.2472 27.5013 56.7138 28.5467 56.2445 29.656C55.4338 31.6613 54.9645 33.2827 54.8365 34.52C54.7938 34.6907 54.7725 34.8613 54.7725 35.032C54.7725 35.16 54.7725 35.3093 54.7725 35.48C54.7725 37.1867 55.3485 38.04 56.5005 38.04C57.1405 38.04 57.9938 37.656 59.0605 36.888C60.1272 36.12 61.2152 35.2027 62.3245 34.136C63.4765 33.0693 64.5005 32.0453 65.3965 31.064C66.2925 30.04 66.9112 29.272 67.2525 28.76C67.3805 28.632 67.5085 28.568 67.6365 28.568C67.8072 28.568 67.9352 28.632 68.0205 28.76C68.1485 28.888 68.1698 29.0587 68.0845 29.272C67.7005 29.9973 67.0392 30.9147 66.1005 32.024C65.2045 33.0907 64.2018 34.1787 63.0925 35.288C61.9832 36.3547 60.8952 37.272 59.8285 38.04C59.1885 38.4667 58.3992 38.8507 57.4605 39.192C56.5218 39.5333 55.5832 39.6827 54.6445 39.64C53.4498 39.512 52.5965 39.1067 52.0845 38.424C51.5725 37.6987 51.3165 36.8453 51.3165 35.864C51.3165 34.712 51.5298 33.496 51.9565 32.216C52.4258 30.8933 52.9378 29.656 53.4925 28.504C54.0472 27.352 54.4952 26.4773 54.8365 25.88C55.1778 25.1973 55.3485 24.664 55.3485 24.28C55.3485 23.9387 55.1992 23.768 54.9005 23.768C54.6018 23.768 54.1538 23.96 53.5565 24.344C52.9592 24.728 52.1485 25.3893 51.1245 26.328C50.1858 27.1387 49.1832 28.2053 48.1165 29.528C47.0498 30.808 46.0045 32.1307 44.9805 33.496C43.9992 34.8613 43.1245 36.0347 42.3565 37.016C41.6312 37.9973 41.1192 38.5733 40.8205 38.744C40.6072 38.872 40.1165 39.0853 39.3485 39.384C38.6232 39.6827 38.0685 39.832 37.6845 39.832ZM84.1035 39.64C83.3782 39.64 82.6955 39.4693 82.0555 39.128C81.4582 38.7867 81.0102 38.1467 80.7115 37.208C80.5835 36.824 80.5195 36.2907 80.5195 35.608C80.5195 34.6693 80.6475 33.624 80.9035 32.472C81.1595 31.32 81.4368 30.3387 81.7355 29.528C81.5222 29.6133 81.1168 29.9973 80.5195 30.68C79.9648 31.32 79.2608 32.1093 78.4075 33.048C77.5968 33.944 76.6795 34.8613 75.6555 35.8C74.6742 36.696 73.6502 37.4427 72.5835 38.04C71.5168 38.6373 70.4715 38.936 69.4475 38.936C68.7648 38.936 68.0395 38.744 67.2715 38.36C66.5035 37.9333 65.8848 37.4 65.4155 36.76C64.7755 35.9067 64.4555 35.032 64.4555 34.136C64.4555 32.984 64.8395 31.7893 65.6075 30.552C66.4182 29.3147 67.4422 28.12 68.6795 26.968C69.9595 25.7733 71.3035 24.7067 72.7115 23.768C74.1622 22.7867 75.5275 21.976 76.8075 21.336C78.1302 20.6533 79.1968 20.2053 80.0075 19.992C80.8608 19.736 81.8208 19.608 82.8875 19.608C83.4848 19.608 84.1035 19.6933 84.7435 19.864C85.3835 19.992 85.9168 20.2267 86.3435 20.568C86.6848 20.7387 86.9622 20.9733 87.1755 21.272C87.3888 21.5707 87.4955 21.8907 87.4955 22.232C87.4955 22.5733 87.3462 22.68 87.0475 22.552C86.7062 22.04 86.2368 21.72 85.6395 21.592C85.0848 21.4213 84.5088 21.336 83.9115 21.336C82.2048 21.336 80.3275 21.8907 78.2795 23C76.2315 24.1093 74.3968 25.4107 72.7755 26.904C72.2635 27.3307 71.5595 28.0773 70.6635 29.144C69.8102 30.168 69.0208 31.2987 68.2955 32.536C67.5702 33.7733 67.2075 34.904 67.2075 35.928C67.2075 36.4827 67.3568 36.9733 67.6555 37.4C67.8262 37.6987 68.1035 37.848 68.4875 37.848C69.0848 37.848 69.8742 37.528 70.8555 36.888C71.8795 36.248 72.9248 35.48 73.9915 34.584C75.0582 33.6453 76.0182 32.7493 76.8715 31.896C77.7675 31.0427 78.4075 30.424 78.7915 30.04C79.0048 29.8267 79.4102 29.4 80.0075 28.76C80.6475 28.0773 81.3302 27.352 82.0555 26.584C82.7808 25.816 83.4208 25.1547 83.9755 24.6C84.5728 24.0453 84.9568 23.768 85.1275 23.768C85.3408 23.768 85.6822 23.832 86.1515 23.96C86.6635 24.0453 87.0902 24.1947 87.4315 24.408C87.7728 24.6213 87.8368 24.8987 87.6235 25.24C86.5142 26.8613 85.6182 28.568 84.9355 30.36C84.2955 32.1093 83.9115 33.496 83.7835 34.52C83.7408 34.6907 83.7195 34.8613 83.7195 35.032C83.7195 35.16 83.7195 35.3093 83.7195 35.48C83.7195 37.1867 84.3168 38.04 85.5115 38.04C86.1515 38.04 87.0048 37.656 88.0715 36.888C89.1382 36.12 90.2262 35.2027 91.3355 34.136C92.4448 33.0693 93.4475 32.0453 94.3435 31.064C95.2822 30.04 95.9222 29.272 96.2635 28.76C96.3915 28.632 96.5195 28.568 96.6475 28.568C96.8182 28.568 96.9675 28.6533 97.0955 28.824C97.2235 28.952 97.2235 29.1227 97.0955 29.336C96.6262 30.104 95.9435 31.0213 95.0475 32.088C94.1515 33.1547 93.1488 34.2213 92.0395 35.288C90.9302 36.3547 89.8422 37.272 88.7755 38.04C88.2208 38.4667 87.5168 38.8293 86.6635 39.128C85.8102 39.4693 84.9568 39.64 84.1035 39.64ZM84.4955 60.888C83.9835 60.888 83.7275 60.6747 83.7275 60.248C83.7275 60.0773 83.7915 59.8427 83.9195 59.544C84.4315 58.4347 85.1568 56.7707 86.0955 54.552C87.0342 52.376 88.0795 49.8587 89.2315 47C90.3408 44.184 91.4715 41.2827 92.6235 38.296C93.6475 35.6507 94.6288 33.0693 95.5675 30.552C96.5488 28.0347 97.3595 25.7733 97.9995 23.768C98.6395 21.72 98.9595 20.1413 98.9595 19.032C98.9595 18.6907 99.1942 18.4987 99.6635 18.456C100.133 18.3707 100.581 18.328 101.008 18.328C102.416 18.328 103.12 18.7973 103.12 19.736C103.12 20.504 102.693 21.5067 101.84 22.744C101.072 23.9813 100.41 25.2613 99.8555 26.584C99.3008 27.864 98.7462 29.1867 98.1915 30.552C99.2155 29.1867 100.176 27.8427 101.072 26.52C101.968 25.1973 103.013 24.0667 104.208 23.128C105.146 22.4027 106.064 21.8267 106.96 21.4C107.898 20.9307 108.901 20.696 109.968 20.696C111.077 20.696 112.186 20.9733 113.296 21.528C114.405 22.04 115.045 22.872 115.216 24.024C115.258 24.152 115.28 24.3013 115.28 24.472C115.28 24.6 115.28 24.728 115.28 24.856C115.28 26.3493 114.832 27.8213 113.936 29.272C113.082 30.68 112.058 31.9387 110.864 33.048C109.669 34.1573 108.56 35.0533 107.536 35.736C106.682 36.248 105.637 36.8027 104.4 37.4C103.205 37.9973 101.925 38.5093 100.56 38.936C99.2368 39.3627 97.9568 39.576 96.7195 39.576C95.9515 39.576 95.3115 39.4907 94.7995 39.32C94.2448 40.6 93.6048 42.2427 92.8795 44.248C92.1542 46.296 91.4715 48.3013 90.8315 50.264C90.5328 51.1173 90.4262 51.8 90.5115 52.312C90.5968 52.8667 90.4902 53.5493 90.1915 54.36C89.9355 55.2133 89.6582 56.024 89.3595 56.792C89.0608 57.6027 88.7195 58.3707 88.3355 59.096C88.2502 59.2667 87.9942 59.5013 87.5675 59.8C87.0982 60.0987 86.5862 60.3547 86.0315 60.568C85.4342 60.7813 84.9222 60.888 84.4955 60.888ZM95.3115 38.296C96.6768 38.296 98.1062 37.976 99.5995 37.336C101.093 36.696 102.565 35.8427 104.016 34.776C105.466 33.7093 106.768 32.5573 107.92 31.32C109.114 30.04 110.074 28.8027 110.8 27.608C111.653 26.2427 112.08 24.984 112.08 23.832C112.08 22.5093 111.504 21.848 110.352 21.848C110.053 21.848 109.69 21.912 109.264 22.04C108.837 22.1253 108.346 22.3173 107.792 22.616C105.53 23.8107 103.674 25.2187 102.224 26.84C100.773 28.4187 99.5355 30.168 98.5115 32.088C97.4875 34.008 96.4208 36.0773 95.3115 38.296ZM119.577 42.2C119.107 42.2 118.638 42.136 118.169 42.008C117.699 41.88 117.358 41.624 117.145 41.24C116.974 40.8987 116.995 40.472 117.209 39.96C117.422 39.4907 117.721 39.064 118.105 38.68C118.446 38.3387 118.873 37.9973 119.385 37.656C119.939 37.3147 120.515 37.0373 121.113 36.824H121.241C121.454 36.824 121.561 36.9093 121.561 37.08C121.561 37.208 121.475 37.336 121.305 37.464C120.537 37.848 119.939 38.3173 119.513 38.872C119.214 39.2133 119.065 39.576 119.065 39.96C119.065 40.6427 119.47 40.984 120.281 40.984C121.177 40.984 122.137 40.7067 123.161 40.152C124.227 39.64 125.23 38.9573 126.169 38.104C127.15 37.208 127.939 36.2693 128.537 35.288C129.134 34.3067 129.433 33.368 129.433 32.472C129.433 31.8747 129.113 31.3413 128.473 30.872C127.833 30.36 127.129 29.912 126.361 29.528C125.593 29.1013 125.017 28.76 124.633 28.504C124.163 28.1627 123.737 27.8213 123.353 27.48C122.969 27.096 122.67 26.6907 122.457 26.264C122.115 26.8613 121.667 27.5867 121.113 28.44C120.601 29.2507 119.982 30.104 119.257 31C119.001 31.256 118.745 31.384 118.489 31.384C118.233 31.384 118.105 31.2773 118.105 31.064C118.105 30.936 118.211 30.7227 118.424 30.424C119.577 29.0587 120.43 27.8 120.985 26.648C121.539 25.496 121.923 24.6213 122.137 24.024C122.307 22.7867 122.883 21.6133 123.865 20.504C124.846 19.3947 126.041 18.4347 127.449 17.624C128.857 16.7707 130.286 16.1093 131.737 15.64C133.23 15.1707 134.553 14.936 135.705 14.936C136.857 14.936 137.881 15.1493 138.777 15.576C139.673 16.0027 140.121 16.6853 140.121 17.624C140.121 18.136 139.971 18.6907 139.673 19.288C139.289 20.0987 138.649 20.824 137.753 21.464C137.71 21.5067 137.646 21.528 137.561 21.528C137.219 21.528 137.049 21.3787 137.049 21.08C137.049 20.8667 137.155 20.6533 137.369 20.44C137.71 20.1413 137.987 19.7787 138.201 19.352C138.414 18.9253 138.521 18.52 138.521 18.136C138.521 17.368 138.073 16.984 137.177 16.984C136.537 16.984 135.79 17.112 134.937 17.368C134.083 17.5813 133.251 17.8587 132.441 18.2C131.673 18.4987 131.033 18.776 130.521 19.032C129.454 19.544 128.473 20.184 127.577 20.952C126.681 21.6773 125.827 22.5947 125.017 23.704C124.462 24.4293 124.185 25.112 124.185 25.752C124.185 26.52 124.697 27.224 125.72 27.864C126.787 28.4613 127.833 29.0373 128.857 29.592C129.923 30.1467 130.819 30.744 131.545 31.384C132.27 32.024 132.633 32.792 132.633 33.688C132.633 34.6693 132.014 35.8427 130.777 37.208C130.009 38.0613 128.963 38.872 127.641 39.64C126.361 40.408 124.995 41.0267 123.545 41.496C122.094 41.9653 120.771 42.2 119.577 42.2ZM140.946 39.64C140.178 39.64 139.474 39.4693 138.834 39.128C138.237 38.7867 137.789 38.1467 137.49 37.208C137.447 37.08 137.405 36.952 137.362 36.824C137.362 36.696 137.362 36.5467 137.362 36.376C137.362 35.5227 137.554 34.456 137.938 33.176C138.322 31.896 138.791 30.6587 139.346 29.464C139.09 29.8053 138.791 30.232 138.45 30.744C138.109 31.2133 137.618 31.832 136.978 32.6C136.807 32.7707 136.615 32.856 136.402 32.856C136.103 32.856 135.954 32.6853 135.954 32.344C135.954 32.088 136.039 31.8747 136.21 31.704C137.319 30.296 138.301 29.0373 139.154 27.928C140.05 26.8187 140.711 25.88 141.138 25.112C141.138 25.0267 141.266 24.7707 141.522 24.344C141.778 23.8747 142.119 23.2347 142.546 22.424C142.205 22.4667 141.906 22.5093 141.65 22.552C141.437 22.552 141.245 22.552 141.074 22.552C140.775 22.552 140.519 22.424 140.306 22.168C140.093 21.912 140.071 21.592 140.242 21.208C140.455 20.6107 140.925 20.2693 141.65 20.184C142.375 20.0987 143.015 20.0347 143.57 19.992C143.613 19.9067 143.698 19.864 143.826 19.864C144.338 18.9253 144.829 18.008 145.298 17.112C145.767 16.216 146.151 15.4693 146.45 14.872C146.791 14.2747 146.962 13.9547 146.962 13.912C147.815 12.5467 148.37 11.6507 148.626 11.224C148.882 10.7547 149.223 10.4773 149.65 10.392C150.119 10.3493 150.61 10.3707 151.122 10.456C151.677 10.5413 152.039 10.7333 152.21 11.032C152.338 11.2027 152.402 11.416 152.402 11.672C152.402 12.056 152.317 12.44 152.146 12.824C151.975 13.1653 151.805 13.4427 151.634 13.656C151.463 13.9547 151.229 14.168 150.93 14.296C150.674 14.3813 150.439 14.6373 150.226 15.064C149.799 15.8747 149.33 16.7493 148.818 17.688C148.306 18.6267 147.773 19.5227 147.218 20.376L147.986 20.312C149.01 20.2267 149.97 20.12 150.866 19.992C151.805 19.864 152.871 19.8213 154.066 19.864C154.279 19.864 154.493 19.9067 154.706 19.992C154.962 20.0347 155.09 20.12 155.09 20.248C155.09 20.4187 154.535 20.6533 153.426 20.952C152.999 21.1227 152.061 21.3147 150.61 21.528C149.202 21.6987 147.751 21.8693 146.258 22.04C145.831 22.8507 145.447 23.5333 145.106 24.088C144.765 24.6 144.53 24.984 144.402 25.24C143.463 27.2027 142.61 28.9947 141.842 30.616C141.117 32.1947 140.711 33.496 140.626 34.52C140.583 34.6907 140.562 34.8613 140.562 35.032C140.562 35.16 140.562 35.3093 140.562 35.48C140.562 37.1867 141.117 38.04 142.226 38.04C142.909 38.04 143.783 37.6773 144.85 36.952C145.917 36.184 147.005 35.2667 148.114 34.2C149.223 33.0907 150.226 32.0453 151.122 31.064C152.061 30.04 152.701 29.272 153.042 28.76C153.17 28.632 153.298 28.568 153.426 28.568C153.597 28.568 153.725 28.632 153.81 28.76C153.938 28.888 153.959 29.0587 153.874 29.272C153.49 29.9973 152.829 30.9147 151.89 32.024C150.994 33.0907 149.97 34.1787 148.818 35.288C147.709 36.3547 146.621 37.272 145.554 38.04C144.999 38.4667 144.295 38.8293 143.442 39.128C142.631 39.4693 141.799 39.64 140.946 39.64ZM158.072 39.96C156.152 39.96 154.488 39.512 153.08 38.616C151.672 37.72 150.968 36.3547 150.968 34.52C150.968 33.5387 151.266 32.344 151.864 30.936C152.29 29.9547 153.08 28.824 154.232 27.544C155.384 26.264 156.728 25.0267 158.264 23.832C159.8 22.5947 161.357 21.592 162.936 20.824C164.514 20.0133 165.944 19.608 167.224 19.608C167.693 19.608 168.12 19.672 168.503 19.8C169.229 20.056 169.72 20.4613 169.976 21.016C170.274 21.5707 170.424 22.1467 170.424 22.744C170.424 23.2987 170.338 23.832 170.168 24.344C169.997 24.856 169.784 25.304 169.528 25.688C168.76 26.84 167.65 27.864 166.2 28.76C164.792 29.656 163.341 30.36 161.848 30.872C160.397 31.384 159.202 31.6827 158.264 31.768H158.135C157.581 31.768 157.304 31.5973 157.304 31.256C157.304 31.0427 157.474 30.936 157.816 30.936C158.84 30.8507 160.12 30.3813 161.656 29.528C163.234 28.632 164.621 27.7147 165.816 26.776C166.328 26.3493 166.925 25.752 167.608 24.984C168.333 24.216 168.696 23.4693 168.696 22.744C168.696 21.976 168.333 21.592 167.608 21.592C167.224 21.592 166.818 21.6773 166.392 21.848C166.008 22.0187 165.688 22.1467 165.432 22.232C164.194 22.8293 162.829 23.768 161.336 25.048C159.842 26.2853 158.477 27.6933 157.24 29.272C156.045 30.808 155.213 32.3653 154.744 33.944C154.616 34.2853 154.53 34.6267 154.488 34.968C154.445 35.2667 154.424 35.5653 154.424 35.864C154.424 36.888 154.744 37.6133 155.384 38.04C156.066 38.4667 156.877 38.68 157.816 38.68C159.224 38.68 160.674 38.3813 162.168 37.784C163.661 37.144 165.112 36.3333 166.52 35.352C167.928 34.3707 169.208 33.3253 170.36 32.216C171.554 31.064 172.557 29.9547 173.368 28.888C173.496 28.7173 173.645 28.632 173.816 28.632C173.986 28.5893 174.093 28.6107 174.136 28.696C174.306 28.7387 174.392 28.8667 174.392 29.08C174.392 29.2507 174.349 29.4213 174.264 29.592C173.069 31.256 171.618 32.8773 169.912 34.456C168.248 36.0347 166.392 37.3573 164.344 38.424C162.338 39.448 160.248 39.96 158.072 39.96ZM181.133 39.768C180.408 39.768 179.768 39.5973 179.213 39.256C178.658 38.9573 178.274 38.36 178.061 37.464C177.933 36.9947 177.869 36.5253 177.869 36.056C177.869 34.776 178.189 33.5387 178.829 32.344C179.512 31.1067 180.301 29.976 181.197 28.952C182.093 27.8853 182.861 26.9893 183.501 26.264C183.842 25.9227 184.226 25.4747 184.653 24.92C185.122 24.3653 185.357 23.8107 185.357 23.256C185.357 22.9147 185.186 22.5947 184.845 22.296C184.504 21.9547 183.885 21.72 182.989 21.592C182.477 21.5067 181.986 21.4427 181.517 21.4C181.09 21.3147 180.642 21.272 180.173 21.272C178.978 22.8933 177.805 24.536 176.653 26.2C175.544 27.8213 174.349 29.4213 173.069 31C172.77 31.2987 172.514 31.448 172.301 31.448C172.045 31.448 171.917 31.32 171.917 31.064C171.917 30.808 172.045 30.552 172.301 30.296C174.605 27.48 176.589 24.472 178.253 21.272C178.04 21.272 177.72 21.272 177.293 21.272C176.866 21.2293 176.525 21.1867 176.269 21.144C175.97 21.0587 175.736 20.9307 175.565 20.76C175.394 20.5893 175.309 20.4187 175.309 20.248C175.309 19.992 175.416 19.8427 175.629 19.8C176.184 19.6293 176.781 19.3733 177.421 19.032C178.061 18.6907 178.658 18.2427 179.213 17.688C179.81 17.0907 180.365 16.472 180.877 15.832C181.389 15.1493 181.794 14.6373 182.093 14.296C182.392 14.0827 182.712 13.976 183.053 13.976C183.266 13.976 183.458 14.04 183.629 14.168C183.842 14.296 183.949 14.488 183.949 14.744C183.949 15.0427 183.821 15.4267 183.565 15.896C183.181 16.4933 182.754 17.1547 182.285 17.88C181.858 18.6053 181.453 19.2667 181.069 19.864C181.837 19.9067 182.605 19.9493 183.373 19.992C184.141 20.0347 184.93 20.056 185.741 20.056C186.168 20.056 186.573 20.056 186.957 20.056C187.384 20.0133 187.81 19.992 188.237 19.992C189.517 19.992 190.157 20.312 190.157 20.952C190.157 21.3787 189.922 21.912 189.453 22.552C189.026 23.1493 188.493 23.8107 187.853 24.536C186.402 26.2 185.165 27.9493 184.141 29.784C183.117 31.6187 182.434 33.0267 182.093 34.008C181.752 35.032 181.581 35.8 181.581 36.312C181.581 37.336 181.986 37.848 182.797 37.848C183.522 37.848 184.397 37.4853 185.421 36.76C186.488 36.0347 187.576 35.16 188.685 34.136C189.794 33.0693 190.797 32.0453 191.693 31.064C192.589 30.04 193.229 29.272 193.613 28.76C193.698 28.632 193.826 28.568 193.997 28.568C194.168 28.568 194.317 28.6533 194.445 28.824C194.573 28.952 194.573 29.1227 194.445 29.336C193.976 30.0613 193.293 30.9787 192.397 32.088C191.501 33.1547 190.498 34.2213 189.389 35.288C188.28 36.3547 187.192 37.272 186.125 38.04C185.57 38.4667 184.802 38.8507 183.821 39.192C182.882 39.576 181.986 39.768 181.133 39.768Z" fill="white"/>
</svg>
